<?xml version="1.0" encoding="UTF-8"?>
<!-- 2019-12-05 14:31:29 Generated by QCAD SVG Exporter -->
<svg width="80mm" height="33.45mm" viewBox="-30 -16.725 80 33.45" version="1.1" xmlns="http://www.w3.org/2000/svg" style="stroke-linecap:round;stroke-linejoin:round;fill:none">
    <g transform="scale(1,-1)">
        <!-- Circle -->
        <circle cx="0" cy="0" r="1.6" style="stroke:#ff0000;stroke-width:0.25;"/>
        <!-- Circle -->
        <circle cx="20" cy="0" r="1.6000000000000014" style="stroke:#ff0000;stroke-width:0.25;"/>
        <!-- Arc -->
        <path d="M-3.4062,-10 A16.725,16.725 0 0,1 23.4062,-10 " style="stroke:#ff0000;stroke-width:0.25;"/>
        <!-- Arc -->
        <path d="M23.4062,-10 A16.725,16.725 0 0,1 23.4062,10 " style="stroke:#000000;stroke-width:0.25;"/>
        <!-- Arc -->
        <path d="M23.4062,10 A16.725,16.725 0 0,1 -3.4062,10 " style="stroke:#ff0000;stroke-width:0.25;"/>
        <!-- Arc -->
        <path d="M-3.4062,10 A16.725,16.725 0 0,1 -3.4062,-10 " style="stroke:#000000;stroke-width:0.25;"/>
        <!-- Line -->
        <path d="M-27,-10 L-3.4062,-10 " style="stroke:#ff0000;stroke-width:0.25;"/>
        <!-- Line -->
        <path d="M-3.4062,10 L-27,10 " style="stroke:#ff0000;stroke-width:0.25;"/>
        <!-- Line -->
        <path d="M-30,7 L-30,-7 " style="stroke:#ff0000;stroke-width:0.25;"/>
        <!-- Line -->
        <path d="M23.4062,-10 L47,-10 " style="stroke:#ff0000;stroke-width:0.25;"/>
        <!-- Line -->
        <path d="M50,-7 L50,7 " style="stroke:#ff0000;stroke-width:0.25;"/>
        <!-- Line -->
        <path d="M47,10 L23.4062,10 " style="stroke:#ff0000;stroke-width:0.25;"/>
        <!-- Arc -->
        <path d="M47,10 A3,3 0 0,0 50,7 " style="stroke:#ff0000;stroke-width:0.25;"/>
        <!-- Arc -->
        <path d="M47,-10 A3,3 0 0,1 50,-7 " style="stroke:#ff0000;stroke-width:0.25;"/>
        <!-- Arc -->
        <path d="M-27,10 A3,3 0 0,1 -30,7 " style="stroke:#ff0000;stroke-width:0.25;"/>
        <!-- Arc -->
        <path d="M-27,-10 A3,3 0 0,0 -30,-7 " style="stroke:#ff0000;stroke-width:0.25;"/>
    </g>
</svg>
